<svg id="visual" viewBox="0 0 675 900" width="675" height="900" xmlns="http://www.w3.org/2000/svg" xmlns:xlink="http://www.w3.org/1999/xlink" version="1.1"><rect x="0" y="0" width="675" height="900" fill="#000927"></rect><path d="M0 844L68 813L135 894L203 761L270 837L338 883L405 893L472 870L540 765L608 825L675 866L675 0L608 0L540 0L472 0L405 0L338 0L270 0L203 0L135 0L68 0L0 0Z" fill="#020043"></path><path d="M0 800L68 696L135 810L203 692L270 786L338 825L405 740L472 703L540 723L608 794L675 813L675 0L608 0L540 0L472 0L405 0L338 0L270 0L203 0L135 0L68 0L0 0Z" fill="#003679"></path><path d="M0 695L68 657L135 682L203 707L270 642L338 700L405 760L472 691L540 684L608 649L675 740L675 0L608 0L540 0L472 0L405 0L338 0L270 0L203 0L135 0L68 0L0 0Z" fill="#006aac"></path><path d="M0 601L68 602L135 613L203 632L270 687L338 606L405 568L472 678L540 688L608 614L675 576L675 0L608 0L540 0L472 0L405 0L338 0L270 0L203 0L135 0L68 0L0 0Z" fill="#00a1d9"></path><path d="M0 513L68 593L135 583L203 597L270 603L338 580L405 562L472 527L540 618L608 614L675 547L675 0L608 0L540 0L472 0L405 0L338 0L270 0L203 0L135 0L68 0L0 0Z" fill="#00daf7"></path><path d="M0 489L68 442L135 512L203 514L270 441L338 437L405 477L472 472L540 529L608 507L675 423L675 0L608 0L540 0L472 0L405 0L338 0L270 0L203 0L135 0L68 0L0 0Z" fill="#00f0ff"></path><path d="M0 458L68 449L135 447L203 439L270 406L338 467L405 443L472 469L540 362L608 447L675 377L675 0L608 0L540 0L472 0L405 0L338 0L270 0L203 0L135 0L68 0L0 0Z" fill="#00f0ff"></path><path d="M0 341L68 294L135 408L203 358L270 361L338 287L405 413L472 297L540 276L608 279L675 324L675 0L608 0L540 0L472 0L405 0L338 0L270 0L203 0L135 0L68 0L0 0Z" fill="#00daf7"></path><path d="M0 255L68 299L135 283L203 243L270 305L338 336L405 234L472 342L540 329L608 286L675 321L675 0L608 0L540 0L472 0L405 0L338 0L270 0L203 0L135 0L68 0L0 0Z" fill="#00a1d9"></path><path d="M0 200L68 259L135 271L203 167L270 219L338 211L405 177L472 147L540 144L608 209L675 242L675 0L608 0L540 0L472 0L405 0L338 0L270 0L203 0L135 0L68 0L0 0Z" fill="#006aac"></path><path d="M0 123L68 166L135 112L203 148L270 151L338 102L405 172L472 101L540 101L608 185L675 73L675 0L608 0L540 0L472 0L405 0L338 0L270 0L203 0L135 0L68 0L0 0Z" fill="#003679"></path><path d="M0 36L68 95L135 119L203 1L270 121L338 70L405 85L472 68L540 10L608 16L675 98L675 0L608 0L540 0L472 0L405 0L338 0L270 0L203 0L135 0L68 0L0 0Z" fill="#020043"></path></svg>